<svg xmlns="http://www.w3.org/2000/svg" aria-hidden="true" style="position:absolute;width:0;height:0;overflow:hidden"><defs><symbol id="icon-linkedin" viewBox="0 0 32 32"><path d="M31.992 32v-.001H32V20.263c0-5.741-1.236-10.164-7.948-10.164-3.227 0-5.392 1.771-6.276 3.449h-.093v-2.913h-6.364v21.364h6.627V21.42c0-2.785.528-5.479 3.977-5.479 3.399 0 3.449 3.179 3.449 5.657v10.401h6.62zM.528 10.636h6.635V32H.528V10.636zM3.843 0C1.722 0 0 1.721 0 3.843s1.721 3.879 3.843 3.879c2.121 0 3.843-1.757 3.843-3.879A3.846 3.846 0 0 0 3.843 0z" /></symbol><symbol id="icon-facebook" viewBox="0 0 32 32"><path d="M21.329 5.313h2.921V.225C23.746.156 22.013 0 19.994 0c-4.212 0-7.097 2.649-7.097 7.519V12H8.249v5.688h4.648V32h5.699V17.689h4.46l.708-5.688h-5.169V8.082c.001-1.644.444-2.769 2.735-2.769z"/></symbol><symbol id="icon-antenna" viewBox="0 0 32 32"><path fill="#212121" d="m30.773 22.098-8.443-8.505.937-4.615c.242.094.499.144.758.146h.006a2.159 2.159 0 1 0-2.008-1.435l-4.96.605L8.972.161a.534.534 0 0 0-.377-.16.532.532 0 0 0-.373.155L6.709 1.66a.534.534 0 0 0 0 .754l.814.826a14.943 14.943 0 0 0 2.519 17.663.513.513 0 0 0 .146.098c-.034.18-.051.364-.052.547v6.187h-6.4a2.67 2.67 0 0 0-2.667 2.667v1.067c0 .295.239.533.533.533h24.533a.533.533 0 0 0 .533-.533v-1.067a2.67 2.67 0 0 0-2.667-2.667h-6.4v-2.742a15.09 15.09 0 0 0 3.049.32 14.854 14.854 0 0 0 7.04-1.783l.818.823a.534.534 0 0 0 .377.16.532.532 0 0 0 .373-.155l1.513-1.504a.534.534 0 0 0 0-.754zM23.28 6.233a1.066 1.066 0 1 1 .752 1.822h-.003a1.067 1.067 0 0 1-.747-1.823h-.002zm-1.256 3.505-.598 2.946-1.175-1.182 1.774-1.763zm-.605-.902-1.92 1.909-1.485-1.493 3.405-.415zM24.004 28.8a1.6 1.6 0 0 1 1.6 1.6v.533H2.137V30.4a1.6 1.6 0 0 1 1.6-1.6h20.267zm-7.467-2.133v1.067h-5.333v-1.067h5.333zM11.204 25.6v-4.053c0-1.294 1.196-2.347 2.667-2.347s2.667 1.053 2.667 2.347V25.6h-5.333zm6.4-1.696v-2.357c0-1.882-1.675-3.413-3.733-3.413a3.8 3.8 0 0 0-3.281 1.786A13.87 13.87 0 0 1 8.311 4.033l18.602 18.708a13.818 13.818 0 0 1-9.309 1.163zm11.289-.684L7.836 2.039l.755-.752 7.935 7.98c.004 0 .006.007.01.01l13.115 13.191-.757.752z" style="fill:var(--color4, #212121)"/><path fill="#2196f3" d="M13.876 20.267h-.005a1.6 1.6 0 1 0-.004 3.2h.005a1.6 1.6 0 1 0 .004-3.2zm.373 1.978a.534.534 0 0 1-.752-.756.534.534 0 0 1 .373-.155.532.532 0 0 1 .373.911h.005z" style="fill:var(--color2, #2196f3)"/></symbol><symbol id="icon-astronaut" viewBox="0 0 32 32"><path fill="#2196f3" d="M31.974 4.524a.534.534 0 0 0-.43-.363l-1.91-.278-.855-1.731c-.179-.365-.777-.365-.956 0l-.855 1.731-1.91.278a.535.535 0 0 0-.296.91l1.383 1.348-.326 1.903c-.034.2.048.402.212.522a.53.53 0 0 0 .562.04l1.709-.899 1.709.899a.536.536 0 0 0 .775-.563l-.326-1.903 1.383-1.348a.536.536 0 0 0 .135-.547zm-2.463 1.327a.534.534 0 0 0-.153.472l.191 1.114-1-.526a.533.533 0 0 0-.498 0l-1.001.526.191-1.114a.534.534 0 0 0-.153-.472l-.81-.789 1.119-.163a.532.532 0 0 0 .402-.292l.5-1.013.5 1.013a.535.535 0 0 0 .402.292l1.119.163-.809.789zM26.134 20.522h-1.067v1.067h1.067v-1.067zM26.134 22.656h-1.067v1.067h1.067v-1.067zM27.2 21.589h-1.067v1.067H27.2v-1.067zM25.067 21.589H24v1.067h1.067v-1.067zM22.4 26.389h-1.067v1.067H22.4v-1.067zM22.4 28.522h-1.067v1.067H22.4v-1.067zM23.467 27.456H22.4v1.067h1.067v-1.067zM21.333 27.456h-1.067v1.067h1.067v-1.067zM16 24.256h-1.067v1.067H16v-1.067zM16 26.389h-1.067v1.067H16v-1.067zM17.067 25.322H16v1.067h1.067v-1.067zM14.933 25.322h-1.067v1.067h1.067v-1.067zM5.867 6.122H4.8v1.067h1.067V6.122zM5.867 8.255H4.8v1.067h1.067V8.255z" style="fill:var(--color2, #2196f3)"/><path fill="#2196f3" d="M6.933 7.189H5.866v1.067h1.067V7.189zM4.8 7.189H3.733v1.067H4.8V7.189z" style="fill:var(--color2, #2196f3)"/><path fill="#212121" d="M24.715 14.159a1.775 1.775 0 0 0-1.188-.705 1.778 1.778 0 0 0-1.34.352l-1.252.96-1.898 1.417-1.358-.541c2.421-1.086 4.114-3.508 4.114-6.32 0-3.823-3.123-6.933-6.961-6.933s-6.961 3.11-6.961 6.933a6.86 6.86 0 0 0 1.12 3.758l-2.764-.024h-.005c-.009 0-.015.004-.023.005a.515.515 0 0 0-.155.031l-.038.013c-.006.003-.013.003-.019.006l-3.233 1.596-.001.001-1.893.911a.397.397 0 0 0-.063.035 1.779 1.779 0 0 0-.598 2.295c.22.429.595.745 1.056.889a1.776 1.776 0 0 0 1.378-.128l1.388-.738 2.264-1.169 1.357-.008L2.2 22.211l-.002.001-1.339 1.333c-.316.315-.49.732-.49 1.178s.174.863.49 1.179c.325.323.752.485 1.179.485s.854-.162 1.18-.485l1.314-1.309 1.741-1.3.901.897-1.762 1.754-.002.001-1.339 1.333c-.316.315-.49.732-.49 1.178s.174.863.49 1.179c.325.323.753.485 1.18.485s.855-.162 1.18-.485l3.482-3.467.001-.002 1.01-1-.004-.004c.006-.006.015-.009.022-.015l5.166-5.658 3.471.494a.52.52 0 0 0 .262-.033c.018-.006.033-.015.05-.023.019-.01.039-.015.058-.027l3.213-2.133c.012-.008.018-.021.029-.029.013-.01.029-.014.041-.026l1.271-1.191c.662-.62.753-1.635.212-2.362zM2.13 17.77a.714.714 0 0 1-.558.052.717.717 0 0 1-.213-1.26l1.314-.632.449 1.312-.992.528zm3.498-1.828-1.548.8-.439-1.283 2.027-1.001-.04 1.484zm15.099-6.62a5.79 5.79 0 0 1-.599 2.559l-4.181-1.899a1.863 1.863 0 0 0-.788-1.388l1.464-4.86c2.378.756 4.105 2.974 4.105 5.588zm-11.789 0c0-3.235 2.644-5.867 5.894-5.867.253 0 .5.021.745.052l-1.432 4.754c-.019-.001-.037-.006-.057-.006-1.033 0-1.873.837-1.873 1.867s.84 1.867 1.873 1.867c.694 0 1.294-.383 1.618-.945l3.862 1.755a5.894 5.894 0 0 1-4.737 2.39c-3.25 0-5.894-2.632-5.894-5.867zm5.956.8c0 .441-.362.8-.806.8s-.806-.359-.806-.8c0-.441.362-.8.806-.8s.806.359.806.8zM2.465 25.146a.608.608 0 0 1-.854.001.592.592 0 0 1 0-.844l.962-.958.851.848-.959.955zm3.214 3.734a.608.608 0 0 1-.855.001.592.592 0 0 1 0-.844l.963-.959.852.848-.96.955zm3.481-3.469-.002.001-1.765 1.76-.852-.848 1.763-1.755.002-.001c.04-.04.065-.088.09-.135.007-.014.02-.026.026-.04.017-.041.019-.085.026-.129.003-.025.014-.047.014-.073 0-.036-.013-.07-.02-.106-.006-.032-.006-.065-.019-.095a.55.55 0 0 0-.091-.138c-.01-.012-.014-.027-.025-.038h-.001l-.001-.002-1.607-1.6c-.017-.017-.039-.024-.058-.038a.507.507 0 0 0-.087-.058.515.515 0 0 0-.093-.033.507.507 0 0 0-.103-.02.5.5 0 0 0-.095.005.53.53 0 0 0-.104.02.477.477 0 0 0-.094.045c-.02.011-.042.015-.061.029L4.23 23.486l-.901-.897 2.399-2.386 4.361 4.289-.928.919zm6.819-7.017c-.015-.002-.03.004-.045.003a.556.556 0 0 0-.3.075.492.492 0 0 0-.083.061c-.013.011-.028.017-.04.029l-4.698 5.146-4.328-4.257 2.833-2.818a.534.534 0 0 0-.379-.911v-.001l-2.219.013.028-1.607 3.104.027a6.947 6.947 0 0 0 4.981 2.101c.437 0 .864-.045 1.279-.123.04.032.079.065.13.085l2.41.96.331 1.644-3.003-.427zm4.041.178-.313-1.558 1.446-1.08.947 1.257-2.08 1.381zm3.754-2.831-.838.785-.931-1.236.831-.637a.735.735 0 0 1 .543-.143.718.718 0 0 1 .48.284.713.713 0 0 1-.085.947z" style="fill:var(--color4, #212121)"/><path fill="#212121" d="m13.602 18.544-2.143-2.133a.534.534 0 0 0-.753 0l-2.142 2.133a.537.537 0 0 0 0 .756l2.142 2.133a.536.536 0 0 0 .753 0l2.143-2.133a.535.535 0 0 0 0-.756zm-2.519 1.759-1.387-1.381 1.387-1.381 1.387 1.381-1.387 1.381zM17.164 5.071l-.258 1.036c.071.018 1.738.452 1.738 2.149h1.067c0-2.017-1.666-2.965-2.547-3.185zM19.711 9.322h-1.067v1.067h1.067V9.322z" style="fill:var(--color4, #212121)"/></symbol><symbol id="icon-diagram" viewBox="0 0 32 32"><path fill="#2196f3" d="M14.926 14.965h1.066v4.798h-1.066v-4.797zM19.19 17.097h1.066v2.665H19.19v-2.665zM10.661 18.696h1.066v1.066h-1.066v-1.066zM7.463 18.163h1.066v1.599H7.463v-1.599z" style="fill:var(--color2, #2196f3)"/><path fill="#212121" d="M1.599 28.291h25.587a1.6 1.6 0 0 0 1.599-1.599V24.56a1.6 1.6 0 0 0-1.599-1.599h-.533V9.668L29.681 6.8a1.608 1.608 0 1 0-.746-.763L26.654 8.2V6.97a1.6 1.6 0 0 0-1.599-1.599H3.733A1.6 1.6 0 0 0 2.134 6.97v15.992h-.533a1.6 1.6 0 0 0-1.599 1.599v2.132a1.6 1.6 0 0 0 1.599 1.599zM30.384 4.837a.533.533 0 1 1 0 1.067.533.533 0 0 1 0-1.067zM3.198 6.969c0-.294.239-.533.533-.533h21.322c.294 0 .533.239.533.533v2.239l-1.066 1.013V8.035a.533.533 0 0 0-.533-.533H4.797a.533.533 0 0 0-.533.533v13.326c0 .294.239.533.533.533h19.19a.533.533 0 0 0 .533-.533v-9.674l1.066-1.01v12.284H3.198V6.969zm4.798 6.93a1.598 1.598 0 1 0 1.107 2.749l1.853.93a.532.532 0 0 0 .636-.123l3.939-4.431 3.872 2.901a.533.533 0 0 0 .686-.039l3.365-3.188v8.131H5.33V8.569h18.124v2.66l-3.771 3.572-3.904-2.927a.533.533 0 0 0-.718.072l-3.993 4.493-1.493-.746c.011-.064.018-.129.02-.193a1.6 1.6 0 0 0-1.599-1.599zm.533 1.599a.533.533 0 1 1-1.067 0 .533.533 0 0 1 1.067 0zm3.198 8.529h5.331v.533a.533.533 0 0 1-.533.533h-4.264a.533.533 0 0 1-.533-.533v-.533zm-10.661.533c0-.294.239-.533.533-.533h9.062v.533a1.6 1.6 0 0 0 1.599 1.599h4.264a1.6 1.6 0 0 0 1.599-1.599v-.533h9.062c.294 0 .533.239.533.533v2.132a.533.533 0 0 1-.533.533H1.598a.533.533 0 0 1-.533-.533V24.56z" style="fill:var(--color4, #212121)"/></symbol><symbol id="icon-clock" viewBox="0 0 32 32"><path fill="#212121" d="M31.297 15.301C31.295 6.849 24.442-.002 15.989 0S.686 6.855.688 15.308a15.304 15.304 0 0 0 10.649 14.576.662.662 0 0 0 .529-.065.637.637 0 0 0 .283-.356l3.865-12.25a1.912 1.912 0 1 0-.84-3.635l-5.106-5.107a.637.637 0 0 0-.902.902l5.103 5.109a1.876 1.876 0 0 0 .536 2.309l-3.683 11.673C3.844 25.783.118 17.71 2.799 10.432S13.553-.572 20.831 2.109s11.004 10.754 8.323 18.032a14.042 14.042 0 0 1-7.462 7.973l-.398-1.874a.638.638 0 0 0-1.048-.344l-3.837 3.426a.637.637 0 0 0 .231 1.084l4.899 1.563a.638.638 0 0 0 .819-.74l-.391-1.839a15.255 15.255 0 0 0 9.329-14.089zm-15.305-.637a.638.638 0 1 1 0 1.277.638.638 0 0 1 0-1.277zm2.101 14.864 2.184-1.948.603 2.84-2.787-.892z" style="fill:var(--color4, #212121)"/><path fill="#2196f3" d="M15.354 3.185V4.46a.638.638 0 1 0 1.276 0V3.185a.638.638 0 0 0-1.276 0zM3.876 14.664a.638.638 0 0 0 0 1.276h1.275a.638.638 0 1 0 0-1.276H3.876zM28.108 15.939a.638.638 0 1 0 0-1.276h-1.275a.638.638 0 0 0 0 1.276h1.275z" style="fill:var(--color2, #2196f3)"/></symbol><symbol id="icon-smartphone" viewBox="0 0 32 32"><path  d="M23 0H9C7.346 0 6 1.346 6 3v26c0 1.654 1.346 3 3 3h14c1.654 0 3-1.346 3-3V3c0-1.654-1.346-3-3-3zM9 2h14a1 1 0 0 1 1 1v21H8V3a1 1 0 0 1 1-1zm14 28H9a1 1 0 0 1-1-1v-3h16v3a1 1 0 0 1-1 1z" /><path  d="M10.707 27.478c.391.365.391.956 0 1.321s-1.024.365-1.414 0c-.391-.365-.391-.956 0-1.321s1.024-.365 1.414 0z" /></symbol><symbol id="icon-twitter" viewBox="0 0 32 32">
<path   d="M32 6.078c-1.1 0.493-2.376 0.857-3.713 1.028l-0.068 0.007c1.36-0.817 2.382-2.078 2.873-3.579l0.013-0.046c-1.197 0.722-2.591 1.273-4.076 1.573l-0.084 0.014c-1.2-1.279-2.9-2.076-4.787-2.076-3.622 0-6.558 2.936-6.558 6.558 0 0.001 0 0.003 0 0.004v-0c0 0.52 0.043 1.021 0.152 1.496-5.454-0.266-10.28-2.88-13.522-6.861-0.564 0.949-0.899 2.092-0.902 3.313v0.001c0 2.272 1.171 4.286 2.914 5.451-1.091-0.030-2.107-0.325-2.994-0.823l0.033 0.017v0.072c0.003 3.165 2.236 5.807 5.213 6.44l0.043 0.008c-0.499 0.136-1.071 0.215-1.662 0.215-0.020 0-0.041-0-0.061-0l0.003 0c-0.419 0-0.843-0.024-1.242-0.112 0.85 2.598 3.261 4.509 6.13 4.57-2.215 1.746-5.045 2.8-8.122 2.8-0.004 0-0.008 0-0.013 0h0.001c-0.018 0-0.040 0-0.062 0-0.531 0-1.055-0.034-1.569-0.099l0.061 0.006c2.826 1.846 6.287 2.944 10.004 2.944 0.021 0 0.042-0 0.063-0h-0.003c12.072 0 18.672-10 18.672-18.669 0-0.288-0.010-0.57-0.024-0.848 1.299-0.936 2.39-2.064 3.258-3.355l0.030-0.047z"></path>
</symbol><symbol id="icon-instagram" viewBox="0 0 32 32">
<path   d="M31.968 9.408c-0.074-1.701-0.349-2.869-0.742-3.882-0.424-1.111-1.054-2.059-1.85-2.837l-0.001-0.001c-0.78-0.792-1.724-1.419-2.778-1.827l-0.054-0.018c-1.019-0.394-2.181-0.667-3.882-0.742-1.712-0.082-2.256-0.101-6.602-0.101-4.344 0-4.888 0.019-6.595 0.094-1.699 0.074-2.869 0.349-3.88 0.742-1.112 0.424-2.060 1.054-2.839 1.85l-0.001 0.001c-0.791 0.78-1.418 1.724-1.825 2.778l-0.018 0.054c-0.395 1.019-0.669 2.181-0.744 3.882-0.082 1.712-0.101 2.256-0.101 6.602 0 4.344 0.019 4.888 0.094 6.595 0.075 1.701 0.35 2.869 0.744 3.882 0.426 1.11 1.055 2.057 1.849 2.837l0.001 0.001c0.8 0.813 1.77 1.443 2.832 1.843 1.019 0.395 2.182 0.67 3.882 0.744 1.707 0.075 2.251 0.094 6.595 0.094 4.346 0 4.89-0.019 6.595-0.094 1.701-0.074 2.869-0.349 3.882-0.742 2.157-0.85 3.833-2.526 4.664-4.628l0.019-0.055c0.394-1.019 0.669-2.182 0.744-3.882 0.075-1.707 0.093-2.251 0.093-6.595s-0.006-4.888-0.080-6.595zM29.088 22.474c-0.070 1.563-0.333 2.406-0.55 2.97-0.552 1.399-1.64 2.486-3.004 3.024l-0.036 0.012c-0.56 0.219-1.411 0.482-2.968 0.55-1.688 0.075-2.194 0.094-6.464 0.094-4.269 0-4.782-0.019-6.464-0.094-1.563-0.069-2.406-0.331-2.97-0.55-0.721-0.269-1.334-0.676-1.836-1.192l-0.001-0.001c-0.517-0.503-0.924-1.117-1.184-1.803l-0.011-0.034c-0.218-0.563-0.48-1.413-0.549-2.97-0.075-1.688-0.094-2.195-0.094-6.464 0-4.27 0.019-4.784 0.094-6.464 0.069-1.563 0.331-2.406 0.549-2.97 0.269-0.722 0.678-1.337 1.198-1.837l0.002-0.002c0.504-0.517 1.119-0.923 1.806-1.182l0.034-0.011c0.56-0.219 1.411-0.48 2.968-0.55 1.688-0.074 2.195-0.093 6.464-0.093 4.275 0 4.782 0.019 6.464 0.093 1.563 0.069 2.406 0.331 2.97 0.55 0.693 0.256 1.325 0.662 1.837 1.194 0.531 0.52 0.938 1.144 1.195 1.84 0.218 0.56 0.48 1.411 0.549 2.968 0.075 1.688 0.094 2.194 0.094 6.464 0 4.269-0.019 4.768-0.094 6.458z"></path>
<path  d="M16.059 7.782c-4.539 0.002-8.218 3.682-8.219 8.221v0c0.091 4.471 3.737 8.060 8.221 8.060s8.13-3.589 8.221-8.052l0-0.009c-0.001-4.54-3.681-8.22-8.221-8.221h-0zM16.059 21.334c-2.945-0-5.332-2.388-5.332-5.333s2.388-5.333 5.333-5.333c0 0 0.001 0 0.001 0h-0c2.946 0 5.334 2.388 5.334 5.334s-2.388 5.334-5.334 5.334v0zM26.525 7.458c0 1.060-0.86 1.92-1.92 1.92s-1.92-0.86-1.92-1.92v0c0-1.060 0.86-1.92 1.92-1.92s1.92 0.86 1.92 1.92v0z"></path>
<symbol id="icon-logo1" viewBox="0 0 28 32">
<path   d="M4.085 0l4.771 4.517-8.857-0.005v21.915h23.149v-8.379l4.766 4.512v-22.559h-23.83zM22.939 17.517l-13.528-12.807h13.528v12.807zM18.739 23.22h-15.076v-14.738h1.066v13.74h14.011v0.997zM7.224 29.345l-0.557 1.147-0.557-1.147h-0.467l0.813 1.529v0.891h0.422v-0.891l0.811-1.529h-0.465zM7.924 31.765l0.196-0.564h0.938l0.197 0.564h0.439l-0.916-2.42h-0.378l-0.914 2.42h0.437zM8.588 29.859l0.351 1.004h-0.701l0.351-1.004zM10.806 30.804c-0.057 0.085-0.091 0.19-0.091 0.303 0 0.001 0 0.003 0 0.004v-0c0 0.204 0.072 0.37 0.214 0.497s0.336 0.19 0.575 0.19c0.239 0 0.445-0.065 0.618-0.195l0.136 0.161h0.468l-0.355-0.421c0.14-0.191 0.209-0.435 0.209-0.733h-0.351c0 0.163-0.034 0.311-0.101 0.444l-0.468-0.552 0.165-0.12c0.1-0.068 0.184-0.152 0.249-0.249l0.002-0.003c0.048-0.079 0.076-0.174 0.076-0.275 0-0.001 0-0.003-0-0.004v0c0-0.003 0-0.006 0-0.009 0-0.149-0.065-0.283-0.169-0.374l-0.001-0c-0.108-0.097-0.251-0.157-0.408-0.157-0.008 0-0.017 0-0.025 0l0.001-0c-0.195 0-0.35 0.056-0.465 0.166s-0.173 0.259-0.173 0.449c0 0.078 0.018 0.157 0.054 0.241 0.038 0.083 0.104 0.184 0.197 0.302-0.179 0.129-0.3 0.24-0.36 0.334zM11.898 31.34c-0.104 0.084-0.237 0.135-0.382 0.136h-0c-0.006 0-0.013 0-0.020 0-0.104 0-0.199-0.040-0.27-0.106l0 0c-0.067-0.066-0.108-0.157-0.108-0.259 0-0.005 0-0.009 0-0.014l-0 0.001c0-0.129 0.067-0.245 0.2-0.346l0.052-0.037 0.528 0.624zM11.464 30.267c-0.114-0.141-0.172-0.257-0.172-0.351 0-0.081 0.024-0.148 0.070-0.201 0.044-0.049 0.107-0.081 0.178-0.081 0.004 0 0.007 0 0.010 0l-0.001-0c0.003-0 0.006-0 0.009-0 0.067 0 0.127 0.026 0.173 0.068l-0-0c0.048 0.045 0.072 0.099 0.072 0.161 0 0.003 0 0.006 0 0.009 0 0.090-0.040 0.171-0.103 0.226l-0 0-0.052 0.041-0.184 0.127zM15.404 31.582c0.166-0.145 0.261-0.347 0.286-0.605h-0.419c-0.022 0.173-0.075 0.296-0.158 0.37s-0.208 0.112-0.372 0.112c-0.18 0-0.318-0.069-0.412-0.206s-0.14-0.337-0.14-0.599v-0.214c0.003-0.259 0.052-0.453 0.15-0.587 0.099-0.134 0.24-0.201 0.422-0.201 0.157 0 0.276 0.039 0.357 0.116s0.133 0.202 0.153 0.376h0.419c-0.027-0.265-0.121-0.47-0.285-0.615s-0.378-0.218-0.645-0.218c-0.198 0-0.373 0.048-0.525 0.142-0.152 0.097-0.271 0.234-0.345 0.396l-0.002 0.006c-0.077 0.169-0.122 0.367-0.122 0.576 0 0.010 0 0.020 0 0.030l-0-0.001v0.226c0.003 0.223 0.045 0.418 0.125 0.587s0.193 0.298 0.339 0.39c0.148 0.091 0.318 0.136 0.511 0.136 0.276 0 0.497-0.072 0.663-0.216zM17.875 31.243c0.082-0.18 0.123-0.388 0.123-0.625v-0.134c0-0.007 0-0.016 0-0.024 0-0.216-0.047-0.421-0.131-0.605l0.004 0.009c-0.077-0.171-0.199-0.31-0.35-0.406l-0.004-0.002c-0.152-0.095-0.326-0.143-0.524-0.143s-0.372 0.048-0.525 0.144c-0.152 0.095-0.27 0.233-0.354 0.414-0.079 0.175-0.125 0.38-0.125 0.595 0 0.011 0 0.021 0 0.032l-0-0.002v0.136c0.001 0.232 0.043 0.436 0.126 0.613 0.084 0.178 0.203 0.315 0.356 0.411 0.154 0.095 0.329 0.143 0.525 0.143 0.199 0 0.374-0.048 0.526-0.143 0.152-0.097 0.27-0.234 0.352-0.413zM17.425 29.874c0.102 0.143 0.152 0.349 0.152 0.618v0.126c0 0.272-0.050 0.48-0.151 0.622-0.099 0.142-0.242 0.213-0.429 0.213-0.005 0-0.011 0-0.017 0-0.171 0-0.323-0.086-0.413-0.216l-0.001-0.002c-0.104-0.145-0.155-0.351-0.155-0.617v-0.14c0.002-0.26 0.054-0.462 0.156-0.603 0.091-0.13 0.24-0.215 0.409-0.215 0.006 0 0.012 0 0.018 0l-0.001-0c0.187 0 0.33 0.072 0.431 0.214z"></path>
</symbol>
<symbol id="icon-logo2" viewBox="0 0 25 32">
<path d="M10.532 1.806h-0.084c-0.129-0.008-0.258-0.011-0.388-0.014h-0.28c-0.244 0-0.494 0.006-0.741 0.018-0.008-0.001-0.018-0.001-0.028-0.001s-0.020 0-0.029 0.001l0.001-0c-2.376 0.138-4.582 0.733-6.576 1.696l0.104-0.045-0.266 0.128v13.626l0.623-0.212c0.546-0.188 1.129-0.357 1.731-0.513 1.488-0.398 3.202-0.638 4.967-0.661l0.014-0v1.79c-0.223 0.001-0.439 0.007-0.655 0.018h-0.052c-1.399 0.079-2.709 0.289-3.971 0.619l0.139-0.031c-1.734 0.441-3.254 1.050-4.666 1.83l0.1-0.051v-17.475c1.379-0.82 2.975-1.488 4.665-1.921l0.127-0.028c1.353-0.364 2.907-0.576 4.51-0.582h0.267c0.314 0.008 0.622 0.022 0.91 0.044 0.829 0.060 1.597 0.187 2.339 0.378l-0.090-0.020v1.762c-0.628-0.154-1.373-0.271-2.134-0.326l-0.045-0.003-0.044-0.004c-0.152-0.013-0.304-0.026-0.446-0.026zM13.633 3.607c0.391 0.030 0.796 0.044 1.205 0.044 1.689-0.007 3.324-0.228 4.881-0.639l-0.135 0.030c1.734-0.442 3.252-1.052 4.665-1.831l-0.101 0.051v17.163c-1.379 0.819-2.975 1.487-4.664 1.921l-0.127 0.028c-1.353 0.363-2.908 0.574-4.511 0.581h-0.004c-0.033 0-0.072 0-0.111 0-1.177 0-2.319-0.147-3.409-0.425l0.095 0.021v-17.275c0.265 0.062 0.537 0.118 0.814 0.164 0.455 0.077 0.934 0.133 1.401 0.167zM22.367 3.74l-0.623 0.209c-0.572 0.193-1.151 0.365-1.731 0.518-1.551 0.415-3.332 0.657-5.169 0.663h-0.004c-0.406 0-0.78-0.011-1.141-0.034l-0.497-0.033v14.017l0.426 0.037c0.395 0.035 0.803 0.052 1.214 0.052 1.45-0.006 2.853-0.198 4.189-0.553l-0.116 0.026c1.221-0.31 2.281-0.702 3.285-1.189l-0.102 0.044 0.266-0.128v-13.63z"></path>
<path d="M1.684 25.977c-0.167-0.173-0.401-0.281-0.661-0.281-0.011 0-0.023 0-0.034 0.001l0.002-0c-0.004-0-0.009-0-0.014-0-0.139 0-0.272 0.028-0.393 0.078l0.007-0.003c-0.237 0.095-0.42 0.28-0.51 0.512l-0.002 0.006c-0.049 0.123-0.073 0.254-0.071 0.386v2.335c-0.006 0.164 0.026 0.328 0.092 0.479 0.055 0.12 0.135 0.226 0.234 0.313 0.093 0.078 0.202 0.135 0.32 0.166 0.114 0.031 0.231 0.048 0.349 0.048 0.13 0.001 0.258-0.026 0.377-0.081 0.351-0.156 0.591-0.5 0.591-0.901v-0.261h-0.611v0.208c0 0.004 0 0.009 0 0.014 0 0.070-0.013 0.136-0.037 0.198l0.001-0.004c-0.021 0.052-0.051 0.095-0.089 0.132l-0 0c-0.070 0.054-0.159 0.088-0.255 0.089h-0c-0.011 0.001-0.023 0.002-0.036 0.002-0.103 0-0.194-0.050-0.25-0.127l-0.001-0.001c-0.051-0.082-0.082-0.182-0.082-0.289 0-0.008 0-0.016 0.001-0.024l-0 0.001v-2.177c-0.004-0.121 0.022-0.24 0.075-0.349 0.056-0.087 0.153-0.143 0.262-0.143 0.013 0 0.025 0.001 0.038 0.002l-0.001-0c0.003-0 0.007-0 0.012-0 0.107 0 0.201 0.052 0.26 0.131l0.001 0.001c0.063 0.082 0.101 0.187 0.101 0.3 0 0.005-0 0.009-0 0.014v-0.001 0.202h0.604v-0.238c0-0.003 0-0.007 0-0.011 0-0.143-0.027-0.28-0.077-0.405l0.003 0.007c-0.048-0.128-0.117-0.237-0.205-0.329l0 0zM5.31 25.951c-0.186-0.158-0.429-0.255-0.694-0.257h-0c-0.124 0-0.248 0.023-0.364 0.066-0.252 0.090-0.451 0.276-0.557 0.511l-0.002 0.006c-0.062 0.142-0.092 0.297-0.089 0.452v2.239c-0.004 0.158 0.026 0.314 0.089 0.458 0.055 0.121 0.135 0.228 0.236 0.313 0.094 0.086 0.203 0.154 0.322 0.197 0.117 0.043 0.24 0.065 0.364 0.066 0.267-0.001 0.51-0.1 0.695-0.264l-0.001 0.001c0.097-0.087 0.176-0.194 0.23-0.313 0.063-0.144 0.093-0.301 0.089-0.458v-2.239c0-0.006 0-0.013 0-0.020 0-0.156-0.033-0.305-0.092-0.439l0.003 0.007c-0.057-0.128-0.135-0.237-0.23-0.327l-0-0zM5.025 28.969c0.001 0.010 0.002 0.023 0.002 0.035 0 0.114-0.047 0.216-0.123 0.289l-0 0c-0.077 0.065-0.178 0.105-0.287 0.105s-0.21-0.040-0.288-0.105l0.001 0.001c-0.076-0.073-0.123-0.175-0.123-0.289 0-0.012 0.001-0.025 0.002-0.037l-0 0.002v-2.239c-0.001-0.010-0.001-0.022-0.001-0.034 0-0.113 0.047-0.216 0.123-0.289l0-0c0.077-0.065 0.178-0.105 0.287-0.105s0.21 0.040 0.288 0.105l-0.001-0.001c0.076 0.073 0.123 0.175 0.123 0.289 0 0.012-0.001 0.025-0.002 0.037l0-0.002v2.24zM10.072 29.969v-4.24h-0.586l-0.771 2.244h-0.010l-0.777-2.244h-0.58v4.239h0.606v-2.578h0.011l0.593 1.823h0.302l0.598-1.823h0.010v2.578h0.606zM13.513 26.027c-0.093-0.105-0.211-0.185-0.342-0.232-0.124-0.042-0.267-0.066-0.416-0.066-0.008 0-0.016 0-0.024 0l0.001-0h-0.9v4.24h0.604v-1.656h0.311c0.189 0.009 0.376-0.031 0.545-0.116 0.139-0.078 0.251-0.188 0.329-0.32l0.002-0.004c0.070-0.113 0.117-0.238 0.138-0.369 0.021-0.133 0.033-0.287 0.033-0.444 0-0.013-0-0.027-0-0.040l0 0.002c0.006-0.203-0.014-0.407-0.059-0.606-0.043-0.153-0.12-0.284-0.223-0.39l0 0zM13.201 27.319c-0.003 0.081-0.023 0.157-0.057 0.224l0.001-0.003c-0.035 0.065-0.089 0.116-0.154 0.147l-0.002 0.001c-0.075 0.034-0.162 0.054-0.254 0.054-0.011 0-0.022-0-0.033-0.001l0.002 0h-0.276v-1.441h0.311c0.009-0 0.019-0.001 0.029-0.001 0.088 0 0.172 0.020 0.247 0.055l-0.004-0.002c0.062 0.036 0.111 0.090 0.141 0.154l0.001 0.002c0.033 0.074 0.051 0.155 0.053 0.236v0.282c0 0.098 0.006 0.201 0 0.291h-0.006zM16.374 25.729h-0.495l-0.934 4.24h0.604l0.177-0.911h0.823l0.178 0.911h0.604l-0.958-4.24zM15.817 28.481l0.297-1.537h0.011l0.295 1.537h-0.604zM20.277 28.283h-0.011l-0.912-2.554h-0.581v4.24h0.604v-2.55h0.012l0.923 2.549h0.568v-4.239h-0.604v2.554zM23.968 25.729l-0.486 1.686h-0.012l-0.486-1.686h-0.639l0.83 2.448v1.791h0.604v-1.791l0.83-2.447h-0.64zM0 31.166h0.291v0.817h0.198v-0.817h0.289v-0.167h-0.778v0.168zM2.447 30.998l-0.382 0.985h0.21l0.081-0.224h0.392l0.084 0.224h0.215l-0.391-0.985h-0.21zM2.417 31.593l0.134-0.365 0.134 0.365h-0.268zM4.866 31.62h0.228v0.127c-0.063 0.051-0.145 0.082-0.234 0.083h-0c-0.004 0-0.009 0-0.014 0-0.079 0-0.149-0.037-0.195-0.094l-0-0c-0.046-0.065-0.073-0.147-0.073-0.234 0-0.008 0-0.016 0.001-0.023l-0 0.001c0-0.219 0.095-0.329 0.283-0.329 0.006-0.001 0.014-0.001 0.021-0.001 0.097 0 0.178 0.067 0.201 0.157l0 0.001 0.194-0.038c-0.042-0.192-0.18-0.289-0.417-0.289-0.004-0-0.008-0-0.013-0-0.127 0-0.244 0.048-0.331 0.127l0-0c-0.088 0.087-0.143 0.208-0.143 0.342 0 0.013 0 0.026 0.002 0.038l-0-0.002c-0 0.007-0 0.015-0 0.023 0 0.132 0.048 0.254 0.127 0.347l-0.001-0.001c0.087 0.090 0.209 0.146 0.343 0.146 0.011 0 0.021-0 0.032-0.001l-0.001 0c0.005 0 0.010 0 0.016 0 0.155 0 0.296-0.060 0.402-0.157l-0 0v-0.388h-0.426v0.166zM7.337 30.998h-0.199v0.985h0.689v-0.167h-0.49v-0.817zM9.426 30.998h-0.199v0.985h0.199v-0.985zM11.469 31.655l-0.404-0.657h-0.193v0.985h0.185v-0.643l0.396 0.643h0.198v-0.985h-0.182v0.658zM13.315 31.549h0.49v-0.167h-0.49v-0.215h0.527v-0.168h-0.727v0.985h0.747v-0.167h-0.548v-0.266zM17.792 31.386h-0.388v-0.388h-0.197v0.984h0.197v-0.431h0.388v0.431h0.198v-0.985h-0.198v0.388zM19.649 31.549h0.492v-0.167h-0.492v-0.215h0.529v-0.168h-0.726v0.985h0.746v-0.167h-0.548v-0.266zM22.168 31.55c0.171-0.027 0.258-0.118 0.258-0.274 0.001-0.008 0.002-0.018 0.002-0.028 0-0.079-0.038-0.148-0.098-0.191l-0.001-0c-0.073-0.037-0.159-0.059-0.25-0.059-0.014 0-0.027 0-0.040 0.001l0.002-0h-0.417v0.984h0.198v-0.412h0.039c0.005-0 0.010-0 0.016-0 0.039 0 0.076 0.008 0.109 0.023l-0.002-0.001c0.029 0.018 0.053 0.042 0.070 0.072l0.215 0.313h0.236l-0.12-0.192c-0.054-0.096-0.128-0.175-0.215-0.235l-0.002-0.002zM21.969 31.413h-0.146v-0.247h0.156c0.012-0.001 0.027-0.002 0.042-0.002 0.057 0 0.111 0.009 0.163 0.026l-0.004-0.001c0.026 0.024 0.043 0.058 0.043 0.096 0 0.042-0.020 0.080-0.052 0.104l-0 0c-0.049 0.016-0.106 0.025-0.164 0.025-0.013 0-0.026-0-0.039-0.001l0.002 0zM24.068 31.549h0.49v-0.167h-0.49v-0.215h0.529v-0.168h-0.729v0.985h0.747v-0.167h-0.548v-0.266z"></path>
</symbol>
<symbol id="icon-logo3" viewBox="0 0 34 32">
<path d="M5.643 31.315c0.012 0 0.024 0.003 0.035 0.008s0.021 0.011 0.030 0.018l-0-0 0.166 0.158c-0.13 0.129-0.289 0.232-0.468 0.302-0.184 0.069-0.397 0.109-0.62 0.109-0.015 0-0.030-0-0.045-0.001l0.002 0c-0.213 0.004-0.425-0.030-0.622-0.101-0.182-0.066-0.338-0.163-0.47-0.286l0.001 0.001c-0.128-0.121-0.231-0.268-0.301-0.432l-0.003-0.008c-0.067-0.162-0.106-0.35-0.106-0.548 0-0.006 0-0.012 0-0.018v0.001c-0-0.009-0-0.019-0-0.029 0-0.388 0.168-0.737 0.436-0.977l0.001-0.001c0.142-0.124 0.312-0.222 0.498-0.287 0.205-0.069 0.423-0.103 0.642-0.101 0.012-0 0.026-0 0.040-0 0.199 0 0.39 0.034 0.568 0.096l-0.012-0.004c0.165 0.062 0.316 0.149 0.447 0.255l-0.139 0.169c-0.010 0.012-0.022 0.022-0.035 0.030l-0.001 0c-0.014 0.008-0.031 0.013-0.048 0.013-0.003 0-0.005-0-0.008-0l0 0c-0.023-0.001-0.043-0.007-0.062-0.018l0.001 0-0.074-0.046-0.104-0.058c-0.095-0.046-0.205-0.081-0.321-0.1l-0.007-0.001c-0.069-0.012-0.149-0.018-0.23-0.018-0.006 0-0.013 0-0.019 0h0.001c-0.005-0-0.010-0-0.015-0-0.16 0-0.313 0.028-0.455 0.079l0.009-0.003c-0.14 0.049-0.26 0.122-0.363 0.214l0.001-0.001c-0.104 0.098-0.183 0.213-0.235 0.339-0.054 0.128-0.085 0.276-0.085 0.432 0 0.006 0 0.011 0 0.017v-0.001c-0 0.006-0 0.012-0 0.019 0 0.157 0.031 0.307 0.088 0.444l-0.003-0.008c0.051 0.125 0.13 0.239 0.231 0.338 0.095 0.091 0.213 0.164 0.345 0.21 0.136 0.049 0.281 0.073 0.427 0.072 0.085 0.001 0.17-0.004 0.254-0.014 0.211-0.022 0.4-0.106 0.55-0.234l-0.001 0.001c0.021-0.017 0.049-0.028 0.078-0.029h0zM10.441 30.517c0 0.005 0 0.011 0 0.017 0 0.197-0.041 0.384-0.116 0.553l0.003-0.009c-0.074 0.172-0.18 0.317-0.311 0.435l-0.001 0.001c-0.138 0.123-0.302 0.22-0.481 0.283l-0.010 0.003c-0.189 0.064-0.406 0.101-0.632 0.101s-0.443-0.037-0.646-0.105l0.014 0.004c-0.188-0.067-0.351-0.165-0.489-0.288l0.001 0.001c-0.133-0.12-0.24-0.267-0.313-0.432l-0.003-0.008c-0.071-0.166-0.112-0.359-0.112-0.562s0.041-0.396 0.116-0.572l-0.004 0.010c0.071-0.165 0.178-0.315 0.316-0.442 0.139-0.121 0.305-0.215 0.488-0.277 0.188-0.065 0.406-0.103 0.632-0.103s0.443 0.038 0.646 0.107l-0.014-0.004c0.184 0.065 0.351 0.162 0.49 0.286 0.137 0.126 0.244 0.274 0.314 0.435 0.077 0.181 0.115 0.373 0.112 0.565zM10.005 30.517c0-0.007 0-0.015 0-0.024 0-0.154-0.029-0.301-0.082-0.436l0.003 0.008c-0.101-0.26-0.308-0.459-0.566-0.548l-0.007-0.002c-0.137-0.047-0.295-0.074-0.459-0.074s-0.322 0.027-0.469 0.077l0.010-0.003c-0.136 0.049-0.254 0.121-0.352 0.214l0-0c-0.097 0.092-0.174 0.205-0.223 0.331l-0.002 0.006c-0.050 0.134-0.079 0.289-0.079 0.451s0.029 0.317 0.082 0.46l-0.003-0.009c0.101 0.261 0.309 0.46 0.569 0.547l0.007 0.002c0.296 0.097 0.622 0.097 0.918 0 0.133-0.046 0.253-0.119 0.35-0.211 0.1-0.098 0.175-0.213 0.222-0.338 0.056-0.145 0.082-0.298 0.079-0.451zM13.715 30.99l0.043 0.101c0.017-0.036 0.031-0.069 0.048-0.101 0.019-0.039 0.037-0.072 0.056-0.103l-0.002 0.004 1.061-1.677c0.021-0.029 0.040-0.047 0.061-0.053s0.047-0.009 0.073-0.009c0.005 0 0.010 0 0.015 0l-0.001-0h0.314v2.728h-0.372v-2.090c-0.001-0.014-0.002-0.031-0.002-0.047s0.001-0.033 0.002-0.049l-0 0.002-1.069 1.701c-0.015 0.026-0.036 0.047-0.062 0.061l-0.001 0c-0.026 0.014-0.057 0.023-0.090 0.023-0.001 0-0.001 0-0.002 0h-0.060c-0.001 0-0.001 0-0.002 0-0.033 0-0.063-0.008-0.090-0.023l0.001 0c-0.026-0.014-0.047-0.035-0.061-0.061l-0-0.001-1.099-1.711v2.189h-0.359v-2.722h0.313c0.004-0 0.009-0 0.015-0 0.026 0 0.051 0.003 0.075 0.010l-0.002-0c0.026 0.011 0.046 0.030 0.058 0.053l1.084 1.678c0.020 0.028 0.038 0.060 0.053 0.094l0.001 0.004zM17.71 30.855v1.021h-0.414v-2.723h0.926c0.175-0.003 0.349 0.018 0.517 0.059 0.134 0.034 0.259 0.091 0.366 0.17 0.089 0.070 0.159 0.16 0.205 0.262l0.002 0.004c0.050 0.111 0.073 0.23 0.071 0.349 0 0.005 0 0.011 0 0.017 0 0.246-0.117 0.465-0.299 0.603l-0.002 0.001c-0.107 0.082-0.232 0.143-0.368 0.18-0.14 0.040-0.301 0.064-0.468 0.064-0.012 0-0.023-0-0.035-0l-0.501-0.008zM17.71 30.562h0.503c0.109 0.002 0.218-0.013 0.322-0.041 0.089-0.026 0.166-0.066 0.234-0.119l-0.002 0.001c0.117-0.097 0.191-0.241 0.191-0.404 0-0.002 0-0.004-0-0.007v0c0.001-0.009 0.001-0.019 0.001-0.029 0-0.070-0.015-0.136-0.043-0.195l0.001 0.003c-0.035-0.074-0.084-0.136-0.144-0.185l-0.001-0.001c-0.139-0.093-0.31-0.149-0.493-0.149-0.023 0-0.046 0.001-0.069 0.003l0.003-0h-0.503v1.122zM23.294 31.88h-0.328c-0.002 0-0.004 0-0.006 0-0.032 0-0.061-0.009-0.086-0.026l0.001 0c-0.023-0.016-0.042-0.037-0.054-0.062l-0-0.001-0.282-0.658h-1.419l-0.293 0.658c-0.026 0.053-0.079 0.088-0.141 0.088-0.001 0-0.003-0-0.004-0h-0.329l1.246-2.728h0.432l1.263 2.728zM21.237 30.867h1.172l-0.494-1.11c-0.038-0.084-0.069-0.169-0.094-0.256l-0.048 0.142c-0.014 0.043-0.030 0.084-0.046 0.116l-0.49 1.108zM25.089 29.166c0.024 0.011 0.046 0.028 0.062 0.048l1.818 2.056v-2.117h0.372v2.728h-0.207c-0.001 0-0.003 0-0.005 0-0.029 0-0.057-0.006-0.082-0.017l0.001 0c-0.026-0.013-0.048-0.030-0.066-0.050l-0-0-1.816-2.054c0.001 0.014 0.001 0.030 0.001 0.047s-0.001 0.033-0.002 0.049l0-0.002v2.027h-0.372v-2.728h0.22c0.025 0 0.051 0.005 0.075 0.013zM30.402 30.795v1.083h-0.415v-1.082l-1.149-1.643h0.372c0.003-0 0.006-0 0.009-0 0.030 0 0.057 0.009 0.081 0.023l-0.001-0c0.023 0.018 0.042 0.039 0.056 0.062l0.718 1.060c0.029 0.046 0.054 0.087 0.075 0.126s0.038 0.078 0.053 0.115l0.053-0.117c0.021-0.043 0.044-0.084 0.071-0.124l0.709-1.067c0.015-0.022 0.033-0.041 0.053-0.058l0-0c0.023-0.017 0.051-0.027 0.082-0.027 0.003 0 0.006 0 0.008 0l-0-0h0.376l-1.15 1.65zM13.509 24.576c0.181 0.020 0.363 0.036 0.549 0.050 2.803-1.090 5.174-2.872 6.818-5.126s2.485-4.878 2.421-7.546l-3.090-2.683c0.629 2.84 0.335 5.775-0.848 8.478s-3.208 5.067-5.849 6.827z"></path>
<path  d="M12.407 24.451l0.083 0.015c2.822-1.755 4.973-4.203 6.176-7.031s1.402-5.904 0.571-8.83l-4.4-3.822c1.779 3.142 2.496 6.659 2.065 10.141-0.43 3.482-1.989 6.786-4.495 9.528zM27.328 15.106c-0.747 2.931-2.563 5.574-5.177 7.538-0.714 0.543-1.519 1.053-2.367 1.49l-0.092 0.043c2.129-0.543 4.085-1.504 5.718-2.808s2.901-2.917 3.703-4.714l-1.784-1.549z"></path>
<path  d="M26.628 14.674l-2.54-2.207c-0.049 2.517-0.872 4.976-2.385 7.122s-3.66 3.902-6.217 5.084h0.012c0.57 0 1.139-0.030 1.705-0.088 2.39-0.848 4.502-2.197 6.146-3.926s2.771-3.785 3.278-5.985zM12.774 3.17l-3.031-2.636c-2.709 0.91-5.039 2.509-6.686 4.588s-2.531 4.542-2.539 7.066c0.010 2.789 1.090 5.495 3.070 7.69 1.979 2.194 4.744 3.754 7.858 4.43 2.779-2.942 4.407-6.578 4.646-10.379s-0.924-7.57-3.319-10.758zM33.63 14.268c-0.011-3.308-1.528-6.478-4.221-8.818s-6.342-3.658-10.15-3.668c-0.008 0-0.018-0-0.028-0-1.831 0-3.59 0.305-5.231 0.867l0.114-0.034 18.556 16.122c0.605-1.313 0.958-2.849 0.96-4.468v-0.001z"></path>
</symbol>
<symbol id="icon-logo4" viewBox="0 0 65 32">
<path d="M10.016 9.983h-0.002c-1.827 0-3.308 1.316-3.308 2.94v0.002c0 1.624 1.481 2.94 3.308 2.94h0.002c1.827 0 3.308-1.317 3.308-2.94v-0.002c0-1.624-1.481-2.941-3.308-2.941zM34.434 9.044c-0.005-2.255-1.016-4.418-2.81-6.012s-4.226-2.493-6.763-2.498c-2.539 0.004-4.972 0.902-6.767 2.497s-2.806 3.757-2.811 6.013v12.437s19.15-1.896 19.152-12.434v-0.002zM0 25.562c0.005 1.57 0.709 3.073 1.957 4.183s2.94 1.735 4.706 1.739c1.765-0.005 3.457-0.63 4.706-1.739s1.952-2.613 1.957-4.181v-8.654s-13.324 1.32-13.324 8.652zM6.662 27.112c-0.345 0-0.682-0.091-0.969-0.261-0.279-0.164-0.499-0.401-0.638-0.686l-0.004-0.009c-0.084-0.173-0.132-0.377-0.132-0.592 0-0.107 0.012-0.212 0.035-0.312l-0.002 0.009c0.067-0.301 0.233-0.578 0.477-0.794 0.243-0.214 0.547-0.364 0.882-0.423l0.011-0.002c0.103-0.019 0.221-0.030 0.341-0.030 0.239 0 0.469 0.043 0.68 0.122l-0.013-0.004c0.319 0.117 0.592 0.316 0.783 0.571s0.294 0.555 0.294 0.861c0.001 0.204-0.043 0.407-0.131 0.596-0.094 0.198-0.221 0.366-0.376 0.503l-0.002 0.001c-0.162 0.145-0.354 0.259-0.567 0.338-0.199 0.075-0.428 0.119-0.668 0.119-0 0-0.001 0-0.001 0h0v-0.006zM20.128 26.258h-1.286v1.328h-0.67v-3.251h2.117v0.542h-1.447v0.84h1.286v0.54zM23.346 26.035c0 0.32-0.056 0.6-0.169 0.841s-0.276 0.427-0.488 0.558c-0.199 0.124-0.44 0.197-0.698 0.197-0.008 0-0.017-0-0.025-0l0.001 0c-0.27 0-0.51-0.065-0.722-0.194-0.213-0.134-0.382-0.322-0.487-0.546l-0.003-0.008c-0.112-0.236-0.177-0.512-0.177-0.804 0-0.009 0-0.019 0-0.028l-0 0.001v-0.16c0-0.32 0.058-0.602 0.172-0.844 0.116-0.244 0.279-0.431 0.489-0.56 0.211-0.131 0.452-0.197 0.723-0.197s0.51 0.066 0.721 0.197c0.211 0.13 0.374 0.316 0.489 0.56 0.116 0.242 0.174 0.523 0.174 0.841v0.145zM22.668 25.887c0-0.341-0.061-0.6-0.183-0.777-0.108-0.161-0.29-0.266-0.496-0.266-0.009 0-0.018 0-0.028 0.001l0.001-0c-0.008-0-0.016-0.001-0.025-0.001-0.205 0-0.387 0.104-0.494 0.262l-0.001 0.002c-0.122 0.174-0.184 0.43-0.185 0.768v0.158c0 0.331 0.061 0.589 0.183 0.772s0.297 0.274 0.527 0.274c0.008 0 0.017 0.001 0.026 0.001 0.204 0 0.384-0.104 0.49-0.261l0.001-0.002c0.12-0.177 0.181-0.434 0.183-0.773v-0.158zM25.518 26.733c0-0.006 0.001-0.012 0.001-0.019 0-0.11-0.052-0.208-0.133-0.27l-0.001-0.001c-0.089-0.069-0.25-0.14-0.482-0.214-0.214-0.067-0.396-0.142-0.57-0.232l0.019 0.009c-0.37-0.2-0.554-0.469-0.554-0.806 0-0.175 0.049-0.332 0.147-0.469 0.1-0.139 0.242-0.246 0.427-0.324 0.186-0.077 0.395-0.116 0.625-0.116 0.232 0 0.439 0.042 0.621 0.127 0.181 0.084 0.322 0.201 0.421 0.355 0.101 0.152 0.152 0.328 0.152 0.522h-0.67c0-0.149-0.046-0.264-0.14-0.346-0.094-0.084-0.226-0.125-0.395-0.125-0.164 0-0.291 0.035-0.382 0.105-0.083 0.060-0.136 0.156-0.136 0.265 0 0.003 0 0.005 0 0.008v-0c0 0.106 0.053 0.194 0.158 0.266 0.107 0.071 0.264 0.138 0.471 0.2 0.381 0.114 0.658 0.257 0.833 0.427s0.261 0.381 0.261 0.634c0 0.281-0.107 0.503-0.32 0.663s-0.498 0.239-0.859 0.239c-0.25 0-0.478-0.046-0.683-0.137-0.193-0.082-0.352-0.211-0.469-0.373l-0.002-0.003c-0.1-0.15-0.16-0.335-0.16-0.533 0-0.007 0-0.014 0-0.022l-0 0.001h0.671c0 0.358 0.214 0.538 0.643 0.538 0.159 0 0.283-0.032 0.373-0.096 0.081-0.058 0.134-0.153 0.134-0.259 0-0.004-0-0.009-0-0.013l0 0.001zM29.092 24.878h-0.995v2.708h-0.67v-2.708h-0.981v-0.542h2.647v0.542zM31.431 26.178h-1.285v0.871h1.509v0.538h-2.178v-3.251h2.174v0.542h-1.505v0.775h1.286v0.524zM33.25 26.396h-0.533v1.19h-0.67v-3.251h1.208c0.384 0 0.68 0.086 0.888 0.257s0.312 0.413 0.312 0.725c0 0.222-0.048 0.408-0.145 0.556-0.108 0.156-0.255 0.278-0.429 0.35l-0.006 0.002 0.702 1.328v0.030h-0.718l-0.61-1.189zM32.717 25.854h0.541c0.168 0 0.297-0.042 0.39-0.126 0.086-0.084 0.139-0.201 0.139-0.33 0-0.009-0-0.017-0.001-0.026l0 0.001c0-0.154-0.043-0.274-0.131-0.362s-0.219-0.132-0.4-0.132h-0.538v0.975zM36.775 26.441v1.145h-0.67v-3.251h1.268c0.244 0 0.459 0.045 0.643 0.134 0.186 0.089 0.329 0.216 0.429 0.382 0.099 0.164 0.149 0.35 0.149 0.56 0 0.318-0.11 0.57-0.328 0.754-0.218 0.183-0.519 0.275-0.904 0.275h-0.587zM36.775 25.899h0.598c0.178 0 0.312-0.042 0.404-0.125 0.094-0.084 0.141-0.203 0.141-0.357 0-0.007 0.001-0.016 0.001-0.024 0-0.14-0.053-0.267-0.141-0.363l0 0c-0.094-0.098-0.223-0.149-0.389-0.152h-0.614v1.021zM41.011 26.178h-1.285v0.871h1.509v0.538h-2.178v-3.251h2.174v0.542h-1.505v0.775h1.286v0.524zM44.119 24.878h-0.996v2.708h-0.67v-2.708h-0.982v-0.542h2.648v0.542zM46.458 26.178h-1.285v0.871h1.509v0.538h-2.179v-3.251h2.174v0.542h-1.504v0.775h1.285v0.524zM48.277 26.396h-0.533v1.19h-0.67v-3.251h1.208c0.384 0 0.68 0.086 0.888 0.257s0.312 0.413 0.312 0.725c0 0.222-0.049 0.408-0.145 0.556-0.108 0.156-0.256 0.278-0.429 0.35l-0.006 0.002 0.703 1.328v0.030h-0.718l-0.61-1.189zM47.744 25.854h0.54c0.168 0 0.298-0.042 0.39-0.126 0.086-0.084 0.139-0.201 0.139-0.331 0-0.009-0-0.017-0.001-0.025l0 0.001c0-0.154-0.043-0.274-0.132-0.362-0.086-0.088-0.219-0.132-0.399-0.132h-0.538v0.975zM51.679 26.734c0-0.006 0.001-0.012 0.001-0.019 0-0.11-0.052-0.208-0.134-0.271l-0.001-0.001c-0.089-0.069-0.25-0.14-0.482-0.214-0.214-0.067-0.396-0.142-0.57-0.232l0.019 0.009c-0.37-0.2-0.554-0.469-0.554-0.806 0-0.175 0.050-0.332 0.147-0.469 0.1-0.139 0.242-0.246 0.427-0.324 0.186-0.077 0.395-0.116 0.625-0.116 0.232 0 0.439 0.042 0.621 0.127 0.181 0.084 0.322 0.201 0.421 0.355 0.101 0.152 0.152 0.328 0.152 0.522h-0.67c0-0.149-0.046-0.264-0.14-0.346-0.094-0.084-0.226-0.125-0.395-0.125-0.164 0-0.291 0.035-0.382 0.105-0.083 0.060-0.137 0.156-0.137 0.265 0 0.002 0 0.005 0 0.007v-0c0 0.106 0.053 0.194 0.159 0.266s0.264 0.138 0.471 0.2c0.381 0.114 0.658 0.257 0.833 0.427s0.261 0.381 0.261 0.634c0 0.281-0.107 0.503-0.32 0.663s-0.499 0.239-0.859 0.239c-0.25 0-0.478-0.046-0.683-0.137-0.193-0.082-0.352-0.211-0.469-0.373l-0.002-0.003c-0.1-0.15-0.16-0.335-0.16-0.533 0-0.007 0-0.014 0-0.022l-0 0.001h0.671c0 0.358 0.214 0.538 0.643 0.538 0.159 0 0.283-0.032 0.373-0.096 0.082-0.058 0.134-0.153 0.134-0.26 0-0.004-0-0.009-0-0.013l0 0.001z"></path>
</symbol>
<symbol id="icon-logo5" viewBox="0 0 43 32">
<path d="M3.239 26.373c0.166 0.188 0.254 0.424 0.25 0.665 0.001 0.015 0.001 0.033 0.001 0.050 0 0.149-0.033 0.29-0.093 0.416l0.003-0.006c-0.072 0.152-0.172 0.279-0.296 0.378l-0.002 0.002c-0.282 0.194-0.631 0.31-1.007 0.31-0.041 0-0.082-0.001-0.123-0.004l0.006 0h-1.977v-4.214h1.936c0.034-0.002 0.074-0.004 0.115-0.004 0.356 0 0.688 0.106 0.965 0.287l-0.007-0.004c0.125 0.097 0.225 0.218 0.289 0.354 0.065 0.138 0.095 0.286 0.086 0.436 0.011 0.232-0.068 0.461-0.225 0.644-0.15 0.168-0.358 0.283-0.59 0.33 0.262 0.044 0.499 0.172 0.667 0.361zM0.92 25.737h0.828c0.188 0.012 0.374-0.037 0.526-0.14 0.060-0.050 0.108-0.113 0.14-0.184l0.001-0.003c0.024-0.054 0.038-0.118 0.038-0.185 0-0.014-0.001-0.028-0.002-0.042l0 0.002c0.001-0.011 0.001-0.023 0.001-0.035 0-0.068-0.014-0.133-0.040-0.192l0.001 0.003c-0.033-0.075-0.079-0.137-0.138-0.187l-0.001-0.001c-0.134-0.091-0.298-0.145-0.476-0.145-0.023 0-0.046 0.001-0.069 0.003l0.003-0h-0.815v1.106zM2.355 27.353c0.065-0.051 0.116-0.116 0.151-0.19l0.001-0.003c0.028-0.059 0.044-0.128 0.044-0.202 0-0.012-0-0.023-0.001-0.035l0 0.002c0.001-0.009 0.001-0.020 0.001-0.031 0-0.075-0.017-0.147-0.047-0.21l0.001 0.003c-0.037-0.078-0.090-0.143-0.154-0.193l-0.001-0.001c-0.142-0.097-0.318-0.154-0.507-0.154-0.019 0-0.039 0.001-0.058 0.002l0.003-0h-0.868v1.16h0.88c0.197 0.010 0.394-0.041 0.556-0.146zM7.197 28.185l-1.076-1.648h-0.405v1.648h-0.927v-4.215h1.755c0.037-0.003 0.081-0.004 0.125-0.004 0.413 0 0.794 0.136 1.1 0.366l-0.005-0.003c0.245 0.229 0.394 0.53 0.417 0.85 0.002 0.026 0.003 0.057 0.003 0.088 0 0.307-0.109 0.589-0.291 0.808l0.002-0.002c-0.218 0.224-0.506 0.378-0.829 0.427l-0.008 0.001 1.147 1.684h-1.008zM5.715 25.963h0.758c0.526 0 0.79-0.212 0.79-0.638 0.001-0.010 0.001-0.022 0.001-0.034 0-0.080-0.016-0.156-0.045-0.225l0.001 0.004c-0.036-0.086-0.087-0.159-0.15-0.218l-0-0c-0.144-0.109-0.326-0.174-0.523-0.174-0.026 0-0.051 0.001-0.077 0.003l0.003-0h-0.767l0.009 1.283zM12.262 27.336h-1.846l-0.326 0.849h-0.972l1.695-4.168h1.051l1.689 4.168h-0.971l-0.319-0.848zM12.015 26.698l-0.675-1.779-0.675 1.779h1.349zM18.602 28.185h-0.919l-2.063-2.866v2.866h-0.918v-4.216h0.918l2.063 2.883v-2.883h0.919v4.216zM23.852 27.176c-0.191 0.318-0.48 0.577-0.833 0.744-0.358 0.168-0.777 0.267-1.219 0.267-0.026 0-0.053-0-0.079-0.001l0.004 0h-1.637v-4.215h1.637c0.023-0.001 0.050-0.001 0.077-0.001 0.441 0 0.859 0.096 1.235 0.267l-0.019-0.008c0.352 0.163 0.642 0.419 0.832 0.735 0.189 0.343 0.288 0.722 0.288 1.106s-0.099 0.763-0.288 1.106zM22.8 27.075c0.25-0.261 0.404-0.616 0.406-1.006v-0c0-0.369-0.144-0.726-0.406-1.006-0.285-0.226-0.65-0.362-1.047-0.362-0.037 0-0.074 0.001-0.11 0.004l0.005-0h-0.639v2.729h0.639c0.032 0.002 0.069 0.003 0.106 0.003 0.396 0 0.761-0.136 1.050-0.364l-0.004 0.003zM12.838 0.522s11.873 4.104 11.621 10.043v10.045s-11.864-4.106-11.617-10.045l-0.004-10.043zM35.037 18.259c2.243-1.413 4.836-2.288 7.544-2.545v-3.146c-3.12 1.102-5.767 3.098-7.544 5.691z"></path>
<path d="M33.69 19.207c1.835-3.384 5.017-5.995 8.891-7.297v-9.061s-16.909 5.846-16.552 14.304v14.302s0.754-0.261 1.939-0.752c0-0.457 0-0.918 0.054-1.382 0.349-3.926 2.388-7.564 5.667-10.115z"></path>
<path  d="M32.082 24.52c0.089-0.992 0.287-1.973 0.592-2.928-2.043 2.203-3.279 4.936-3.536 7.816-0.025 0.272-0.039 0.543-0.045 0.824 1.41-0.617 2.478-1.142 3.524-1.703l-0.273 0.133c-0.3-1.362-0.388-2.757-0.263-4.142zM32.754 24.571c-0.033 0.348-0.052 0.752-0.052 1.161 0 0.917 0.095 1.811 0.276 2.674l-0.015-0.084c4.62-2.531 9.811-6.442 9.61-11.168v-0.412c-3.301 0.338-6.388 1.659-8.79 3.76-0.53 1.19-0.895 2.571-1.026 4.019l-0.004 0.051z"></path>
</symbol>
<symbol id="icon-logo6" viewBox="0 0 67 32">
<path d="M33.724 15.223c-0.271-0.35-0.435-0.795-0.435-1.278 0-0.048 0.002-0.095 0.005-0.142l-0 0.006v-2.051c0-0.628 0.142-1.106 0.428-1.433 0.284-0.327 0.774-0.489 1.468-0.488 0.652 0 1.116 0.139 1.389 0.417 0.299 0.355 0.444 0.789 0.411 1.226v0.482h-1.166v-0.489c0.004-0.159-0.007-0.319-0.034-0.477-0.020-0.116-0.081-0.214-0.166-0.283l-0.001-0.001c-0.105-0.070-0.234-0.112-0.373-0.112-0.018 0-0.035 0.001-0.052 0.002l0.002-0c-0.015-0.001-0.033-0.002-0.050-0.002-0.147 0-0.283 0.044-0.397 0.12l0.003-0.002c-0.096 0.077-0.166 0.185-0.193 0.309l-0.001 0.004c-0.030 0.14-0.047 0.302-0.047 0.467 0 0.014 0 0.028 0 0.042l-0-0.002v2.488c-0.019 0.24 0.033 0.48 0.149 0.698 0.061 0.075 0.139 0.133 0.23 0.168l0.004 0.001c0.068 0.027 0.148 0.043 0.231 0.043 0.025 0 0.050-0.001 0.074-0.004l-0.003 0c0.015 0.001 0.032 0.002 0.049 0.002 0.136 0 0.262-0.043 0.365-0.116l-0.002 0.001c0.090-0.075 0.153-0.18 0.174-0.299l0-0.003c0.027-0.165 0.040-0.332 0.036-0.498v-0.505h1.167v0.461c0.003 0.036 0.004 0.079 0.004 0.122 0 0.443-0.153 0.85-0.41 1.171l0.003-0.004c-0.268 0.304-0.725 0.457-1.397 0.457s-1.179-0.163-1.466-0.501zM38.583 15.245c-0.295-0.32-0.442-0.784-0.442-1.399v-2.157c0-0.609 0.147-1.070 0.442-1.383s0.787-0.469 1.478-0.467c0.686 0 1.176 0.156 1.471 0.467 0.294 0.313 0.444 0.774 0.444 1.383v2.156c0 0.609-0.149 1.077-0.449 1.398s-0.787 0.481-1.466 0.481-1.181-0.163-1.479-0.479zM40.604 14.727c0.106-0.199 0.154-0.419 0.14-0.638v-2.641c0.001-0.021 0.002-0.046 0.002-0.071 0-0.203-0.052-0.394-0.142-0.561l0.003 0.006c-0.062-0.076-0.142-0.135-0.234-0.17l-0.004-0.001c-0.068-0.027-0.146-0.042-0.229-0.042-0.028 0-0.056 0.002-0.083 0.005l0.003-0c-0.024-0.003-0.051-0.005-0.079-0.005-0.083 0-0.161 0.015-0.234 0.043l0.004-0.002c-0.096 0.036-0.177 0.096-0.239 0.171l-0.001 0.001c-0.107 0.195-0.154 0.41-0.14 0.626v2.652c-0.014 0.22 0.033 0.439 0.14 0.639 0.068 0.067 0.152 0.121 0.246 0.158 0.089 0.036 0.192 0.056 0.3 0.056s0.211-0.021 0.305-0.058l-0.006 0.002c0.095-0.037 0.178-0.091 0.246-0.158v-0.013zM43.381 9.902h1.256l0.944 3.979 0.967-3.979h1.222l0.124 5.743h-0.904l-0.097-3.991-0.932 3.991h-0.725l-0.966-4.006-0.090 4.006h-0.913l0.114-5.743zM49.301 9.902h1.957c1.127 0 1.691 0.543 1.691 1.631 0 1.041-0.594 1.562-1.781 1.56h-0.666v2.552h-1.208l0.007-5.744zM50.973 12.356c0.119 0.014 0.24 0.004 0.356-0.028 0.114-0.031 0.22-0.083 0.309-0.154 0.139-0.194 0.2-0.422 0.174-0.649 0.001-0.019 0.001-0.041 0.001-0.063 0-0.163-0.022-0.321-0.062-0.471l0.003 0.013c-0.019-0.061-0.050-0.114-0.089-0.158l0 0c-0.042-0.047-0.093-0.086-0.149-0.114l-0.003-0.001c-0.141-0.059-0.304-0.094-0.476-0.094-0.022 0-0.044 0.001-0.066 0.002l0.003-0h-0.469v1.717h0.469zM54.692 9.902h1.297l1.331 5.743h-1.126l-0.263-1.324h-1.157l-0.27 1.324h-1.143l1.331-5.743zM55.8 13.655l-0.452-2.411-0.452 2.411h0.903zM58.394 9.902h0.846l1.618 3.276v-3.276h1.003v5.743h-0.804l-1.628-3.42v3.42h-1.036l0.002-5.743zM64.209 13.454l-1.345-3.545h1.133l0.821 2.278 0.77-2.278h1.109l-1.329 3.546v2.19h-1.159v-2.19zM35.59 18.156v0.3h-0.986v2.334h-0.413v-2.334h-0.991v-0.3h2.389zM38.679 20.79h-0.319c-0.003 0-0.006 0-0.009 0-0.030 0-0.058-0.009-0.081-0.025l0 0c-0.023-0.015-0.041-0.035-0.052-0.060l-0-0.001-0.285-0.626h-1.367l-0.284 0.626c-0.009 0.028-0.024 0.052-0.044 0.071l-0 0c-0.023 0.016-0.052 0.025-0.082 0.025-0.003 0-0.005-0-0.008-0h-0.318l1.208-2.634h0.42l1.223 2.624zM36.679 19.812h1.14l-0.484-1.072c-0.031-0.067-0.061-0.15-0.086-0.235l-0.003-0.014c-0.017 0.050-0.031 0.098-0.045 0.14l-0.044 0.11-0.478 1.070zM40.762 20.531c0.076 0.004 0.151 0.004 0.228 0 0.065-0.006 0.129-0.016 0.193-0.031 0.059-0.012 0.117-0.028 0.174-0.048 0.053-0.018 0.107-0.042 0.161-0.065v-0.592h-0.483c-0.001 0-0.003 0-0.004 0-0.023 0-0.044-0.008-0.061-0.022l0 0c-0.008-0.006-0.014-0.013-0.018-0.021l-0-0c-0.004-0.007-0.006-0.015-0.006-0.024 0-0.001 0-0.002 0-0.003v0-0.202h0.937v1.010c-0.147 0.091-0.316 0.165-0.496 0.211l-0.013 0.003c-0.1 0.026-0.2 0.043-0.302 0.055-0.117 0.011-0.235 0.016-0.353 0.016-0.005 0-0.010 0-0.015 0-0.212 0-0.416-0.036-0.606-0.102l0.013 0.004c-0.186-0.065-0.347-0.158-0.486-0.277l0.002 0.002c-0.129-0.114-0.234-0.253-0.308-0.409l-0.003-0.008c-0.070-0.156-0.111-0.338-0.111-0.529 0-0.006 0-0.012 0-0.019v0.001c-0-0.005-0-0.010-0-0.016 0-0.193 0.040-0.377 0.112-0.543l-0.003 0.009c0.069-0.156 0.176-0.299 0.311-0.417 0.138-0.119 0.302-0.211 0.484-0.273 0.206-0.068 0.427-0.101 0.647-0.098 0.112 0 0.225 0.007 0.336 0.023 0.098 0.014 0.195 0.036 0.287 0.067 0.085 0.027 0.166 0.063 0.242 0.105 0.074 0.041 0.144 0.087 0.211 0.137l-0.116 0.163c-0.010 0.015-0.023 0.027-0.039 0.035l-0.001 0c-0.016 0.009-0.035 0.014-0.055 0.014h-0c-0.028-0.001-0.053-0.008-0.075-0.021l0.001 0c-0.049-0.023-0.088-0.044-0.126-0.066l0.007 0.004c-0.045-0.025-0.099-0.049-0.154-0.069l-0.008-0.002c-0.062-0.022-0.136-0.042-0.213-0.057l-0.009-0.001c-0.087-0.015-0.188-0.023-0.29-0.023-0.006 0-0.011 0-0.017 0h0.001c-0.004-0-0.010-0-0.015-0-0.162 0-0.317 0.027-0.462 0.076l0.010-0.003c-0.134 0.046-0.256 0.117-0.356 0.208-0.095 0.090-0.171 0.199-0.222 0.321l-0.002 0.006c-0.051 0.13-0.081 0.281-0.081 0.439s0.030 0.309 0.084 0.448l-0.003-0.008c0.053 0.124 0.135 0.237 0.242 0.332 0.099 0.090 0.219 0.161 0.352 0.208 0.154 0.046 0.316 0.063 0.479 0.052zM44.612 20.49h1.319v0.3h-1.722v-2.634h0.412l-0.009 2.334zM47.303 20.79h-0.412v-2.634h0.412v2.634zM48.84 18.169c0.025 0.012 0.046 0.028 0.063 0.047l0 0 1.766 1.985c-0.001-0.014-0.002-0.030-0.002-0.047s0.001-0.033 0.002-0.049l-0 0.002v-1.963h0.36v2.645h-0.208c-0.004 0-0.009 0-0.014 0-0.027 0-0.054-0.006-0.077-0.016l0.001 0c-0.025-0.013-0.047-0.030-0.065-0.050l-0-0-1.764-1.984v2.048h-0.346v-2.634h0.215c0.023 0 0.047 0.004 0.068 0.012zM54.070 18.156v0.289h-1.463v0.87h1.186v0.279h-1.186v0.9h1.463v0.289h-1.889v-2.628h1.889zM10.782 1.889l18.343 4.496v15.757l-18.343-4.494v-15.76zM9.605 0.545v17.868l20.693 5.075v-17.866l-20.693-5.076z"></path>
<path  d="M20.696 31.781l-20.696-5.079v-17.865l20.696 5.077v17.867z"></path>
<path d="M9.948 1.686l18.103 4.44-7.698 6.649-18.107-4.442 7.702-6.647zM9.605 0.545l-9.605 8.292 20.696 5.077 9.603-8.294-20.693-5.075zM21.86 30.776l8.439-7.288-8.439-2.069v9.358z"></path>
</symbol>
<symbol id="icon-close-black" viewBox="0 0 32 32">
<path d="M26.667 7.303l-1.97-1.97-7.808 7.808-7.808-7.808-1.97 1.97 7.808 7.808-7.808 7.808 1.97 1.97 7.808-7.808 7.808 7.808 1.97-1.97-7.808-7.808 7.808-7.808z"></path>
</symbol>
<symbol id="icon-telegram" viewBox="0 0 32 32">
<path d="M32 0l-32 18 10.227 3.787 15.773-14.787-11.997 16.187 0.009 0.003-0.012-0.003v8.813l5.735-6.691 7.267 2.691 4.999-28z"></path>
</symbol>
<symbol id="icon-person-black" viewBox="0 0 32 32">
<path d="M16 16c2.946 0 5.333-2.388 5.333-5.333s-2.388-5.333-5.333-5.333v0c-2.946 0-5.333 2.388-5.333 5.333s2.388 5.333 5.333 5.333v0zM16 18.667c-3.561 0-10.667 1.787-10.667 5.333v1.333c0 0.732 0.599 1.333 1.333 1.333h18.667c0.732 0 1.333-0.601 1.333-1.333v-1.333c0-3.547-7.108-5.333-10.667-5.333z"></path>
</symbol>
<symbol id="icon-email-black" viewBox="0 0 32 32">
<path d="M26.667 5.333h-21.333c-1.467 0-2.652 1.2-2.652 2.667l-0.014 16c0 1.467 1.2 2.667 2.667 2.667h21.333c1.467 0 2.667-1.2 2.667-2.667v-16c0-1.467-1.2-2.667-2.667-2.667zM26.133 11.001l-9.426 5.892c-0.201 0.126-0.446 0.2-0.708 0.2s-0.506-0.075-0.713-0.204l0.006 0.003-9.426-5.892c-0.336-0.201-0.557-0.562-0.557-0.975 0-0.625 0.507-1.132 1.132-1.132 0.233 0 0.449 0.070 0.629 0.19l-0.004-0.003 8.933 5.586 8.933-5.588c0.176-0.118 0.392-0.188 0.624-0.188 0.625 0 1.132 0.507 1.132 1.132 0 0.413-0.221 0.775-0.552 0.972l-0.005 0.003z"></path>
</symbol>
<symbol id="icon-phone-black" viewBox="0 0 32 32">
<path d="M24.882 19.774l-3.268-0.373c-0.090-0.011-0.194-0.018-0.3-0.018-0.707 0-1.347 0.287-1.81 0.75l-2.368 2.368c-3.669-1.894-6.585-4.81-8.427-8.372l-0.051-0.108 2.382-2.377c0.463-0.463 0.75-1.103 0.75-1.81 0-0.106-0.006-0.21-0.019-0.312l0.001 0.012-0.373-3.243c-0.155-1.287-1.24-2.276-2.557-2.276-0.001 0-0.002 0-0.003 0h-2.226c-1.454 0-2.663 1.209-2.574 2.661 0.683 10.987 9.47 19.762 20.444 20.444 1.452 0.089 2.663-1.12 2.663-2.574v-2.226c0-0.004 0-0.008 0-0.012 0-1.308-0.985-2.386-2.253-2.532l-0.012-0.001z"></path>
</symbol>
<symbol id="icon-check" viewBox="0 0 42 32">
<path fill="#fff" style="fill: var(--color1, #fff); stroke: var(--color1, #fff)" stroke="#fff" stroke-linejoin="miter" stroke-linecap="butt" stroke-miterlimit="4" stroke-width="0.64" d="M6.262 15.206l-0.221-0.211-0.221 0.208-3.085 2.925 0.243 0.234 11.408 10.88 0.221-0.211 24.256-23.139-0.243-0.23-3.043-2.902-0.221 0.211-20.97 19.987-8.125-7.75z"></path>
</symbol>
<symbol id="icon-menu-mob" viewBox="0 0 32 32">
<path d="M6.4 11.734v-2.134h19.2v2.134h-19.2zM6.4 17.066h19.2v-2.133h-19.2v2.133zM6.4 22.4h19.2v-2.134h-19.2v2.134z"></path>
</symbol>
<symbol id="icon-close-mob" viewBox="0 0 32 32">
<path d="M23.734 10.304l-1.504-1.504-5.963 5.962-5.962-5.962-1.504 1.504 5.962 5.962-5.962 5.963 1.504 1.504 5.962-5.963 5.963 5.963 1.504-1.504-5.963-5.963 5.963-5.962z"></path>
</symbol>
<symbol id="icon-envelope" viewBox="0 0 32 32"><path  d="M29 4H3C1.346 4 0 5.346 0 7v18c0 1.654 1.346 3 3 3h26c1.654 0 3-1.346 3-3V7c0-1.654-1.346-3-3-3zm0 2c.136 0 .265.028.383.077L16 17.676 2.617 6.077A.996.996 0 0 1 3 6h26zm0 20H3a1 1 0 0 1-1-1V8.19l13.345 11.565a.998.998 0 0 0 1.31 0L30 8.19V25a1 1 0 0 1-1 1z" /></symbol></defs></svg>